# xmcd
#
# Track frame offsets: 
#        150
#        17044
#        29361
#        42101
#        50464
#        60606
#        75450
#        83531
#        92829
#        106321
#        120160
#        128888
#        140419
#        150755
#        163041
#        172838
#        180939
#        192176
#        202698
#        215981
#
# Disc length: 3047 seconds
#
# Revision: 0
# Processed by: cddbd v1.5.2PL0 Copyright (c) Steve Scherf et al.
# Submitted via: ExactAudioCopy v1.3
#
DISCID=ee0be514
DTITLE=Any Old Arms Won't Do - Willie Nelson
DYEAR=1992
DGENRE=Country
TTITLE0=I Let My Mind Wonder
TTITLE1=Shelter of My Arms
TTITLE2=Any Old Arms Won't Do
TTITLE3=Slow Down Old World
TTITLE4=Healing Hands of Time
TTITLE5=And So Will You My Love
TTITLE6=Things to Remember
TTITLE7=One Step Beyond
TTITLE8=Undo The Wrong
TTITLE9=Home is Where You're Happy
TTITLE10=Why Are You Picking on Me Ż
TTITLE11=December Days
TTITLE12=Blame it on The Time
TTITLE13=I Can't Find The Time
TTITLE14=I Don't Sleep a Wink
TTITLE15=You Wouldn't Cross The Street to Say Goodbye
TTITLE16=Suffering In Silence
TTITLE17=I Feel Sorry For Him
TTITLE18=You'll Always Have Someone
TTITLE19=I Just Don't Understand
EXTD=
EXTT0=
EXTT1=
EXTT2=
EXTT3=
EXTT4=
EXTT5=
EXTT6=
EXTT7=
EXTT8=
EXTT9=
EXTT10=
EXTT11=
EXTT12=
EXTT13=
EXTT14=
EXTT15=
EXTT16=
EXTT17=
EXTT18=
EXTT19=
PLAYORDER=
